<?xml version="1.0" encoding="utf-8"?>
<!-- Generator: Adobe Illustrator 25.2.1, SVG Export Plug-In . SVG Version: 6.00 Build 0)  -->
<svg version="1.1" id="Layer_1" xmlns="http://www.w3.org/2000/svg" xmlns:xlink="http://www.w3.org/1999/xlink" x="0px" y="0px"
	 viewBox="0 0 500 500" style="enable-background:new 0 0 500 500;" xml:space="preserve">
<g>
	<g>
		<polygon points="193.55,178.31 240.01,178.31 333.93,389.13 286.47,389.13 		"/>
		<polygon points="302.95,178.31 351.41,178.31 441.83,389.13 393.88,389.13 		"/>
		<circle cx="452.2" cy="204.17" r="25.85"/>
	</g>
	<g>
		<path d="M78.59,317.76c-17.61-9.47-31.45-22.6-41.53-39.39c-10.08-16.8-15.12-35.78-15.12-56.95c0-21.17,5.04-40.16,15.12-56.95
			c10.08-16.8,23.92-29.93,41.53-39.39c17.61-9.47,38.26-14.06,59.4-14.2c18.23-0.12,44.23,5.34,58.32,13.57
			c11.13,6.5,18.05,15.72,23.36,22.02c10.08,11.98,16.43,23.5,20.34,31.86c-15.27,0.49-30.54,0.98-45.81,1.48
			c-8.65-18.43-27.03-28.43-48.4-28.43c-13.24,0-30.4,4.56-40.79,10.36c-10.38,5.8-18.48,13.89-24.28,24.28
			c-5.8,10.38-8.7,22.19-8.7,35.42c0,13.24,2.9,25.04,8.7,35.42c5.8,10.38,13.89,18.48,24.28,24.28c10.38,5.8,22.19,8.7,35.42,8.7
			c21.38,0,39.29-8.45,53.75-25.35l31.76,29.32c-10.18,12.42-22.8,21.89-37.87,28.4c-15.07,6.51-31.86,9.77-50.39,9.77
			C115.9,331.96,96.2,327.23,78.59,317.76z"/>
	</g>
</g>
</svg>
